<svg version="1.2" xmlns="http://www.w3.org/2000/svg" viewBox="0 0 706 671" width="706" height="671">
	<title>logo-svg</title>
	<style>
		.s0 { fill: #287379 } 
		.s1 { opacity: .5;fill: #287379 } 
		.s2 { fill: #e8e7d5 } 
	</style>
	<g id="Layer">
		<g id="Layer">
			<g id="tight-bounds">
				<g id="Layer">
					<g id="Layer">
						<g id="Layer">
							<g id="Layer">
								<g id="Layer">
									<g id="Layer">
										<g id="Layer">
										</g>
									</g>
									<g id="icon-0">
										<g id="Layer">
											<g id="Layer">
												<path id="Layer" class="s0" d="m60.9 30.5h612.1v611.5h-612.1z"/>
												<path id="Layer" class="s1" d="m30.3 0h612.2v611.5h-612.2z"/>
											</g>
											<g id="Layer">
												<g id="Layer">
													<g id="Layer">
														<g id="cg-0">
															<path id="Layer" fill-rule="evenodd" class="s2" d="m602.3 416.9c0 72.8-59.1 131.8-131.9 131.8-18.6 0-36.2-3.9-52.3-10.8l-198.5 47.4q-0.3 0-0.6 0c-0.5 0-1.1-0.2-1.5-0.5q-0.3-0.2-0.5-0.5l-62.2-47.2c-0.6-0.5-0.9-1.2-0.9-2v-342.9l-22.1-62.3c-0.4-0.9-0.1-1.9 0.6-2.6 0.7-0.7 1.8-0.9 2.7-0.5l15.5 6.3-5.1-16c-0.2-0.7-0.1-1.5 0.3-2.1 0.4-0.6 1.1-1 1.8-1.1l254-26.7c1.3-0.1 2.6 0.8 2.7 2.1l9.4 60.3 33.1-59.5c0.6-0.9 1.7-1.4 2.8-1.2l85.2 20.4c0.7 0.2 1.3 0.6 1.7 1.3 0.3 0.6 0.3 1.4 0.1 2.1l-30.8 76.9 44.4 34.9c0.8 0.7 1.2 1.7 0.9 2.7-0.3 0.9-1.1 1.7-2.1 1.8l-43.4 5.6v55.3c55.8 15.4 96.7 66.5 96.7 127zm-263.8 0c0-31.2 10.9-59.9 29-82.4h0.1q2-2.5 4.1-4.9c24.1-27.3 59.4-44.4 98.7-44.4 10.4 0 20.5 1.2 30.2 3.5v-53.5l-243.4 31.4q-0.2 0-0.3 0c-0.7 0-1.4-0.2-1.9-0.8l-33.5-36.9v350.8l189.4-45.2c-21.9-11.1-40.3-28-53-48.8-11.9-19.3-18.9-41.9-19.3-66.1q-0.1 0-0.1 0 0-1.3 0-2.7zm180 0c0-26.5-21.5-48.1-48.1-48.1-26.6 0-48.2 21.6-48.2 48.1 0 26.6 21.6 48.1 48.2 48.1 26.6 0 48.1-21.5 48.1-48.1zm-165.8 51.8l70.9-31.2c-1.7-3.7-2.9-7.7-3.6-11.9l-76.3 13.1c1.8 10.5 4.9 20.5 9 30zm117.7-0.7c-15.9 0-30.2-7.3-39.5-18.7l-59.9 49c23.6 28.7 59.4 47.1 99.4 47.1 0 0 0-77.4 0-77.4zm39.4-51.1c0 21.7-17.7 39.3-39.4 39.3-21.7 0-39.4-17.6-39.4-39.3 0-21.7 17.7-39.3 39.4-39.3 21.7 0 39.4 17.6 39.4 39.3zm-17.2 0c0-12.2-9.9-22.2-22.2-22.2-12.3 0-22.2 10-22.2 22.2 0 12.3 9.9 22.2 22.2 22.2 12.3 0 22.2-9.9 22.2-22.2zm-76.7-260.8l85.8 30.3 29.1-72.9-80.5-19.3zm-1.2 41l75.6-9.4-75.6-26.7zm-2.2 5.4l-185.3 25.3 30.7 33.8 284.5-36.7-42.3-33.3zm-254.1-12.4l56 30.8-23.4-65.8-52.6-21.5zm58.1 37.7l-57.7-31.7v337.9l57.7 43.7zm192.8-73.4l-9.6-61.9-248.5 26.1 5.4 17.1 37.3 15.2c0.6 0.3 1.1 0.8 1.4 1.5l10 28.2zm-207.4 129.7c1.2 0.7 1.6 2.3 0.9 3.4-0.5 0.8-1.3 1.2-2.2 1.2q-0.7 0-1.3-0.3l-31.5-19.3c-1.2-0.7-1.5-2.2-0.8-3.4 0.7-1.2 2.3-1.6 3.4-0.8zm-34.9-42.4c0.7-1.2 2.3-1.6 3.4-0.8l34.2 21.2c1.2 0.7 1.6 2.3 0.8 3.4-0.5 0.8-1.3 1.2-2.1 1.2-0.5 0-0.9-0.1-1.3-0.3l-34.2-21.3c-1.2-0.7-1.5-2.3-0.8-3.4zm90.1 108.7l115.6-21.9q-0.5 0.6-1.1 1.2-2.1 2.4-4.1 4.9l-107.4 20.4v29.4c31.3-0.2 55.8 15.9 78.4 35.3 0.5 24.2 7.5 46.8 19.4 66.1 3.6 5.8 7.6 11.4 12 16.6l-111.8 21.2q-0.3 0.1-0.5 0.1c-0.6 0-1.1-0.2-1.6-0.6-0.6-0.5-0.9-1.2-0.9-1.9v-168.3c0-1.2 0.9-2.2 2-2.5zm-90.2 143.2c0.7-1.2 2.3-1.6 3.5-0.9l31.5 17.9c1.2 0.7 1.6 2.2 0.9 3.5-0.5 0.8-1.3 1.2-2.2 1.2q-0.6 0-1.2-0.3l-31.5-17.9c-1.2-0.7-1.7-2.3-1-3.5zm-3-149.4v-54.9c0-0.9 0.4-1.7 1.2-2.2 0.8-0.4 1.8-0.4 2.5 0.1l37 21.7c0.7 0.4 1.2 1.3 1.2 2.2v55.6c0 0.9-0.5 1.7-1.3 2.1-0.4 0.3-0.8 0.4-1.2 0.4q-0.7 0-1.3-0.4l-36.9-22.5c-0.8-0.4-1.2-1.2-1.2-2.1zm5-1.4l31.9 19.4v-49.7l-31.9-18.8zm33.8 196.7c-0.5 0.8-1.3 1.2-2.1 1.2-0.4 0-0.9-0.1-1.3-0.4l-31.5-20.3c-1.2-0.8-1.5-2.4-0.8-3.5 0.8-1.2 2.3-1.5 3.5-0.8l31.5 20.4c1.1 0.7 1.5 2.3 0.7 3.4z"/>
														</g>
													</g>
												</g>
											</g>
										</g>
									</g>
								</g>
							</g>
						</g>
					</g>
				</g>
			</g>
		</g>
	</g>
</svg>