<svg xmlns="http://www.w3.org/2000/svg" version="1.1" xmlns:xlink="http://www.w3.org/1999/xlink" xmlns:svgjs="http://svgjs.dev/svgjs" width="2000" height="671" viewBox="0 0 2000 671"><g transform="matrix(1,0,0,1,-1.2121212121212466,0.7616141071603124)"><svg viewBox="0 0 396 133" data-background-color="#e8e7d5" preserveAspectRatio="xMidYMid meet" height="671" width="2000" xmlns="http://www.w3.org/2000/svg" xmlns:xlink="http://www.w3.org/1999/xlink"><g id="tight-bounds" transform="matrix(1,0,0,1,0.2400000000000091,-0.15096076937751945)"><svg viewBox="0 0 395.52 133.30192153875504" height="133.30192153875504" width="395.52"><g><svg viewBox="0 0 636.4086715201922 214.48851839999998" height="133.30192153875504" width="395.52"><g transform="matrix(1,0,0,1,0,51.32973777428915)"><svg viewBox="0 0 395.52 111.82904285142168" height="111.82904285142168" width="395.52"><g id="textblocktransform"><svg viewBox="0 0 395.52 111.82904285142168" height="111.82904285142168" width="395.52" id="textblock"><g><svg viewBox="0 0 395.52 111.82904285142168" height="111.82904285142168" width="395.52"><g transform="matrix(1,0,0,1,0,0)"><svg width="395.52" viewBox="-0.65 -35 124.84 35.3" height="111.82904285142168" data-palette-color="#287379"><path d="M6.75-8.45L6.75-8.45Q6.75-6.5 7.3-5.53 7.85-4.55 9.25-4.55L9.25-4.55Q10.5-4.55 11.7-5.73 12.9-6.9 13.35-8.7L13.35-8.7 13.35-8.95 15.8-20.4Q15.65-21.2 15.13-21.68 14.6-22.15 13.75-22.15L13.75-22.15Q11-22.15 8.88-17.55 6.75-12.95 6.75-8.45ZM16.25-22.7L16.25-22.7 16.25-22.5 18.7-34 26.1-35 20.35-8Q20.25-7.55 20.2-7.18 20.15-6.8 20.15-6.4L20.15-6.4Q20.15-5.4 20.63-4.98 21.1-4.55 22.2-4.55L22.2-4.55Q23.5-4.55 24.55-5.7 25.6-6.85 26.25-8.95L26.25-8.95 28.35-8.95Q26.8-4.5 24.33-2.25 21.85 0 18.3 0L18.3 0Q16.25 0 14.98-1.13 13.7-2.25 13.4-4.3L13.4-4.3Q11.9-2 10.05-0.85 8.2 0.3 6 0.3L6 0.3Q2.9 0.3 1.13-1.8-0.65-3.9-0.65-7.75L-0.65-7.75Q-0.65-10.55 0.2-13.6 1.05-16.65 2.55-19.15L2.55-19.15Q4.4-22.1 6.85-23.68 9.3-25.25 12.2-25.25L12.2-25.25Q14.15-25.25 15.2-24.58 16.25-23.9 16.25-22.7ZM32.9 0.3L32.9 0.3Q29.55 0.3 27.72-1.38 25.9-3.05 25.9-6.1L25.9-6.1Q25.9-6.8 26-7.5 26.1-8.2 26.25-8.95L26.25-8.95 31.6-34 39-35 36.6-23.75Q37.8-24.5 38.72-24.83 39.65-25.15 40.7-25.15L40.7-25.15Q43.65-25.15 45.12-23.03 46.6-20.9 46.6-16.6L46.6-16.6Q46.6-13.65 45.7-10.55 44.8-7.45 43.2-5.15L43.2-5.15Q41.35-2.45 38.75-1.07 36.15 0.3 32.9 0.3ZM33.05-6.85L33.05-6.85Q33.05-5.7 33.72-5.13 34.4-4.55 35.7-4.55L35.7-4.55Q37.95-4.55 39.75-8.5 41.55-12.45 41.55-16.8L41.55-16.8Q41.55-18.9 40.82-20.25 40.1-21.6 38.9-21.6L38.9-21.6Q38.1-21.6 37.2-21.35 36.3-21.1 35.95-20.7L35.95-20.7 33.2-8Q33.15-7.7 33.1-7.4 33.05-7.1 33.05-6.85ZM57.35-4.55L57.35-4.55Q58.65-4.55 59.67-5.68 60.7-6.8 61.35-8.95L61.35-8.95 64.75-25 71.95-25 68.34-8Q68.25-7.55 68.2-7.18 68.15-6.8 68.15-6.4L68.15-6.4Q68.15-5.4 68.62-4.98 69.09-4.55 70.2-4.55L70.2-4.55Q71.5-4.55 72.55-5.7 73.59-6.85 74.25-8.95L74.25-8.95 76.34-8.95Q74.75-4.35 72.2-2.02 69.65 0.3 66.3 0.3L66.3 0.3Q64.15 0.3 62.85-0.93 61.55-2.15 61.35-4.45L61.35-4.45Q59.9-2.05 58.07-0.88 56.25 0.3 53.95 0.3L53.95 0.3Q51.45 0.3 50.02-1.28 48.6-2.85 48.6-5.7L48.6-5.7Q48.6-6.35 48.7-7.18 48.8-8 49-8.95L49-8.95 52.4-25 59.6-25 56-8Q55.9-7.6 55.87-7.28 55.85-6.95 55.85-6.6L55.85-6.6Q55.85-5.6 56.22-5.08 56.6-4.55 57.35-4.55ZM83.54-19L79.54 0 72.34 0 77.64-25 84.84-25 84.19-21.9Q86.39-23.75 87.67-24.38 88.94-25 90.24-25L90.24-25Q91.79-25 92.74-23.93 93.69-22.85 93.69-21.25L93.69-21.25Q93.69-19.7 92.69-18.65 91.69-17.6 90.09-17.6L90.09-17.6Q89.24-17.6 88.77-18 88.29-18.4 88.09-19.65L88.09-19.65Q87.94-20.45 87.74-20.68 87.54-20.9 87.19-20.9L87.19-20.9Q86.34-20.9 85.59-20.55 84.84-20.2 83.54-19L83.54-19ZM105.34-8.35L105.34-8.35Q105.34-7.75 105.29-7.3 105.24-6.85 105.14-6.45L105.14-6.45Q106.14-7.05 107.09-7.7 108.04-8.35 108.74-8.95L108.74-8.95 110.84-8.95Q109.29-7.15 107.42-5.63 105.54-4.1 103.19-2.7L103.19-2.7Q101.84-1.25 99.74-0.48 97.64 0.3 95.34 0.3L95.34 0.3Q91.99 0.3 90.02-1.53 88.04-3.35 88.04-6.1L88.04-6.1Q88.04-7.65 88.79-8.93 89.54-10.2 90.69-10.75L90.69-10.75Q92.39-13.8 93.86-17.28 95.34-20.75 96.84-25.55L96.84-25.55 104.24-26.55Q104.39-22.8 104.59-19.7 104.79-16.6 105.09-12.95L105.09-12.95Q105.24-10.85 105.29-10 105.34-9.15 105.34-8.35ZM97.14-20.15L97.14-20.15Q96.49-18.1 95.56-15.88 94.64-13.65 93.09-10.7L93.09-10.7Q93.64-10.45 93.94-10 94.24-9.55 94.24-8.95L94.24-8.95Q94.24-8 93.59-7.25 92.94-6.5 92.04-6.5L92.04-6.5Q91.54-6.5 91.19-6.68 90.84-6.85 90.69-7.15L90.69-7.15Q90.69-5.3 91.42-4.48 92.14-3.65 93.74-3.65L93.74-3.65Q95.79-3.65 96.94-4.85 98.09-6.05 98.09-8.3L98.09-8.3Q98.09-9 98.04-9.73 97.99-10.45 97.84-12.15L97.84-12.15Q97.59-14.5 97.44-16.3 97.29-18.1 97.14-20.15ZM110.09-23L110.49-25 112.14-25 113.64-31.9 121.04-32.9 119.34-25 122.34-25 121.94-23 118.94-23 115.74-8Q115.64-7.55 115.59-7.18 115.54-6.8 115.54-6.4L115.54-6.4Q115.54-5.4 116.01-4.98 116.49-4.55 117.59-4.55L117.59-4.55Q118.99-4.55 120.24-5.78 121.49-7 122.09-8.95L122.09-8.95 124.19-8.95Q122.59-4.4 119.89-2.05 117.19 0.3 113.69 0.3L113.69 0.3Q111.19 0.3 109.76-1.28 108.34-2.85 108.34-5.7L108.34-5.7Q108.34-6.35 108.44-7.18 108.54-8 108.74-8.95L108.74-8.95 111.74-23 110.09-23Z" opacity="1" transform="matrix(1,0,0,1,0,0)" fill="#287379" class="wordmark-text-0" data-fill-palette-color="primary" id="text-0"></path></svg></g></svg></g></svg></g></svg></g><g transform="matrix(1,0,0,1,421.9201531201922,0)"><svg viewBox="0 0 214.48851839999998 214.48851839999998" height="214.48851839999998" width="214.48851839999998"><g><svg></svg></g><g id="icon-0"><svg viewBox="0 0 214.48851839999998 214.48851839999998" height="214.48851839999998" width="214.48851839999998"><g><rect width="195.02567136" height="195.02567136" x="9.731423519999993" y="9.731423519999993" fill="#287379" data-fill-palette-color="accent"></rect><rect width="195.02567136" height="195.02567136" x="-5.329070518200751e-15" y="-5.329070518200751e-15" fill="#287379" opacity="0.5" data-fill-palette-color="accent"></rect></g><g transform="matrix(1,0,0,1,32.271625363348704,27.80406719999999)"><svg viewBox="0 0 149.94526767330257 158.880384" height="158.880384" width="149.94526767330257"><g><svg xmlns="http://www.w3.org/2000/svg" xmlns:xlink="http://www.w3.org/1999/xlink" version="1.1" baseProfile="tiny" x="0" y="0" viewBox="3.2840745016431585 0.49954218862582234 93.43192549835685 98.99945781137419" overflow="scroll" xml:space="preserve" height="158.880384" width="149.94526767330257" class="icon-cg-0" data-fill-palette-color="quaternary" id="cg-0"><path d="M70.536 58.215c-4.317 0-7.816 3.499-7.816 7.813 0 4.316 3.499 7.812 7.816 7.812 4.313 0 7.813-3.495 7.813-7.812C78.35 61.714 74.85 58.215 70.536 58.215zM70.536 70.439c-2.436 0-4.411-1.977-4.411-4.412 0-2.437 1.976-4.406 4.411-4.406 2.432 0 4.407 1.97 4.407 4.406C74.943 68.463 72.968 70.439 70.536 70.439zM70.536 39.848c-14.461 0-26.181 11.723-26.181 26.18 0 14.461 11.72 26.179 26.181 26.179 14.458 0 26.18-11.718 26.18-26.179C96.716 51.57 84.994 39.848 70.536 39.848zM45.381 70.357l15.15-2.608c0.146 0.831 0.385 1.626 0.718 2.371l-14.071 6.2C46.349 74.438 45.737 72.443 45.381 70.357zM70.536 91.552c-7.943 0-15.054-3.646-19.735-9.355l11.886-9.736c1.861 2.269 4.688 3.719 7.85 3.719V91.552zM70.536 75.581c-5.279 0-9.559-4.273-9.559-9.554 0-5.275 4.279-9.554 9.559-9.554 5.276 0 9.555 4.278 9.555 9.554C80.091 71.308 75.813 75.581 70.536 75.581zM58.719 89.393l-37.586 8.979v-69.71l6.649 7.341c0.095 0.104 0.229 0.162 0.368 0.162 0.022 0 0.042-0.001 0.064-0.004l48.322-6.24v10.621c0.336 0.077 0.669 0.162 0.996 0.253V29.791l8.606-1.111c0.199-0.024 0.362-0.167 0.418-0.36 0.052-0.193-0.016-0.4-0.171-0.524l-8.816-6.951 6.102-15.282c0.05-0.135 0.042-0.286-0.022-0.414-0.065-0.127-0.185-0.22-0.328-0.255L66.4 0.846c-0.214-0.053-0.439 0.047-0.549 0.242l-6.57 11.826-1.86-11.992c-0.037-0.263-0.28-0.446-0.541-0.42L6.461 5.805C6.312 5.82 6.179 5.902 6.096 6.028 6.014 6.152 5.994 6.308 6.04 6.451l1.011 3.176-3.08-1.259c-0.183-0.074-0.39-0.035-0.532 0.1C3.296 8.604 3.247 8.809 3.313 8.994l4.383 12.373v68.145c0 0.158 0.074 0.303 0.197 0.396l12.337 9.376c0.027 0.042 0.06 0.075 0.098 0.108 0.088 0.067 0.198 0.107 0.31 0.107 0.038 0 0.076-0.005 0.114-0.015l39.415-9.416C59.676 89.862 59.193 89.636 58.719 89.393zM66.538 1.901l15.99 3.826L76.75 20.209l-17.038-6.014L66.538 1.901zM59.486 15.172l15.002 5.293-15.002 1.87V15.172zM76.44 21.224l8.399 6.62L28.344 35.14l-6.088-6.722 36.794-5.025L76.44 21.224zM4.623 9.71l10.443 4.271 4.66 13.087L8.602 20.936 4.623 9.71zM20.138 97.967L8.693 89.268V22.124l11.445 6.306V97.967zM17.928 19.048l-2-5.609c-0.047-0.135-0.15-0.24-0.28-0.293l-7.397-3.028L7.172 6.73l49.341-5.187 1.905 12.296L17.928 19.048zM17.246 39.61c0.234 0.143 0.307 0.451 0.164 0.685-0.094 0.154-0.256 0.238-0.425 0.238-0.088 0-0.177-0.025-0.259-0.075l-6.253-3.82c-0.234-0.144-0.31-0.448-0.167-0.682 0.144-0.237 0.451-0.31 0.685-0.167L17.246 39.61zM10.309 31.183c0.145-0.232 0.453-0.302 0.686-0.157l6.786 4.218c0.233 0.145 0.303 0.453 0.158 0.686-0.094 0.152-0.255 0.235-0.422 0.235-0.089 0-0.18-0.023-0.261-0.074l-6.786-4.222C10.236 31.724 10.164 31.418 10.309 31.183zM28.207 52.795l22.941-4.362c-0.354 0.392-0.697 0.797-1.029 1.209l-21.321 4.056v5.849C35 59.512 39.875 62.71 44.362 66.56c0.123 6.265 2.449 11.992 6.235 16.437l-22.206 4.22c-0.03 0.006-0.063 0.009-0.093 0.009-0.116 0-0.227-0.042-0.316-0.115-0.116-0.095-0.183-0.236-0.183-0.383V53.284C27.801 53.045 27.972 52.843 28.207 52.795zM10.3 81.257c0.137-0.242 0.439-0.324 0.678-0.186l6.254 3.565c0.239 0.133 0.321 0.438 0.186 0.68-0.091 0.158-0.259 0.249-0.433 0.249-0.083 0-0.167-0.023-0.247-0.063l-6.252-3.566C10.248 81.797 10.163 81.491 10.3 81.257zM9.925 51.981l7.333 4.463c0.08 0.052 0.169 0.077 0.258 0.077 0.083 0 0.169-0.021 0.244-0.067 0.158-0.088 0.255-0.252 0.255-0.432V44.974c0-0.175-0.093-0.34-0.245-0.429l-7.332-4.321c-0.154-0.09-0.344-0.092-0.5-0.004-0.156 0.09-0.251 0.254-0.251 0.433v10.908C9.687 51.732 9.777 51.892 9.925 51.981zM10.683 41.522l6.336 3.735v9.879l-6.336-3.856V41.522zM17.404 90.379c-0.096 0.15-0.254 0.229-0.419 0.229-0.092 0-0.186-0.027-0.268-0.078l-6.255-4.042c-0.23-0.149-0.297-0.459-0.148-0.686 0.149-0.233 0.459-0.298 0.688-0.151l6.254 4.039C17.488 89.843 17.553 90.152 17.404 90.379z" fill="#e8e7d5" data-fill-palette-color="quaternary"></path></svg></g></svg></g></svg></g></svg></g></svg></g><defs></defs></svg><rect width="395.52" height="133.30192153875504" fill="none" stroke="none" visibility="hidden"></rect></g></svg></g></svg>